<svg xmlns="http://www.w3.org/2000/svg" viewBox="0 0 512 512">
  <defs>
    <linearGradient id="bg" x1="0%" y1="0%" x2="100%" y2="100%">
      <stop offset="0%" style="stop-color:#2d2d2d"/>
      <stop offset="100%" style="stop-color:#1a1a1a"/>
    </linearGradient>
    <linearGradient id="gear" x1="0%" y1="0%" x2="100%" y2="100%">
      <stop offset="0%" style="stop-color:#5cb85c"/>
      <stop offset="100%" style="stop-color:#3d8b3d"/>
    </linearGradient>
  </defs>

  <!-- Background rounded square -->
  <rect x="16" y="16" width="480" height="480" rx="80" ry="80" fill="url(#bg)" stroke="#5cb85c" stroke-width="8"/>

  <!-- Gear/cog behind the document -->
  <g transform="translate(256, 200)" fill="url(#gear)" opacity="0.3">
    <path d="M0-90 L15-85 20-70 35-75 45-60 60-55 55-40 70-30 65-15 80-5 75 10 85 20 70 30 75 45 60 45 55 60 40 65 25 75 10 80
             -10 80 -25 75 -40 65 -55 60 -60 45 -75 45 -70 30 -85 20 -75 10 -80-5 -65-15 -70-30 -55-40 -60-55 -45-60 -35-75 -20-70 -15-85Z"/>
    <circle r="35" fill="#2d2d2d"/>
  </g>

  <!-- Document/list icon -->
  <g transform="translate(146, 120)">
    <!-- Document body -->
    <rect x="0" y="0" width="220" height="280" rx="16" ry="16" fill="#f5f5f5" opacity="0.95"/>
    <!-- Document fold -->
    <path d="M170 0 L220 50 L170 50 Z" fill="#d0d0d0"/>

    <!-- List lines (mod entries) -->
    <!-- Checkbox 1 - checked -->
    <rect x="24" y="70" width="22" height="22" rx="4" fill="none" stroke="#5cb85c" stroke-width="3"/>
    <path d="M28 81 L33 86 L42 75" fill="none" stroke="#5cb85c" stroke-width="3" stroke-linecap="round" stroke-linejoin="round"/>
    <rect x="60" y="74" width="120" height="14" rx="4" fill="#5cb85c"/>

    <!-- Checkbox 2 - checked -->
    <rect x="24" y="110" width="22" height="22" rx="4" fill="none" stroke="#5cb85c" stroke-width="3"/>
    <path d="M28 121 L33 126 L42 115" fill="none" stroke="#5cb85c" stroke-width="3" stroke-linecap="round" stroke-linejoin="round"/>
    <rect x="60" y="114" width="100" height="14" rx="4" fill="#5cb85c"/>

    <!-- Checkbox 3 - unchecked -->
    <rect x="24" y="150" width="22" height="22" rx="4" fill="none" stroke="#888" stroke-width="3"/>
    <rect x="60" y="154" width="130" height="14" rx="4" fill="#aaa"/>

    <!-- Checkbox 4 - checked -->
    <rect x="24" y="190" width="22" height="22" rx="4" fill="none" stroke="#5cb85c" stroke-width="3"/>
    <path d="M28 201 L33 206 L42 195" fill="none" stroke="#5cb85c" stroke-width="3" stroke-linecap="round" stroke-linejoin="round"/>
    <rect x="60" y="194" width="90" height="14" rx="4" fill="#5cb85c"/>

    <!-- Checkbox 5 - checked -->
    <rect x="24" y="230" width="22" height="22" rx="4" fill="none" stroke="#5cb85c" stroke-width="3"/>
    <path d="M28 241 L33 246 L42 235" fill="none" stroke="#5cb85c" stroke-width="3" stroke-linecap="round" stroke-linejoin="round"/>
    <rect x="60" y="234" width="110" height="14" rx="4" fill="#5cb85c"/>
  </g>

  <!-- "PZ" text overlay -->
  <text x="380" y="420" font-family="Arial Black, Arial, sans-serif" font-weight="900" font-size="100" fill="#5cb85c" opacity="0.9" text-anchor="middle">PZ</text>
</svg>
